<svg width="268" height="168" viewBox="0 0 268 168" fill="none" xmlns="http://www.w3.org/2000/svg">
<g filter="url(#filter0_d_11_57)">
<circle cx="133" cy="81" r="80" fill="#D73F0F"/>
</g>
<g filter="url(#filter1_d_11_57)">
<path d="M97.1555 44.26C94.0755 44.26 91.6555 44.52 89.8955 45.04H86.9555L85.2755 38.98C87.4355 37.58 90.7355 36.88 95.1755 36.88C100.696 36.88 104.376 37.92 106.216 40C107.176 41.08 107.836 42.36 108.196 43.84C108.556 45.32 108.736 47.22 108.736 49.54C108.736 53.18 107.896 56.1 106.216 58.3C108.696 60.34 109.936 64 109.936 69.28C109.936 71.4 109.716 73.24 109.276 74.8C108.876 76.32 108.136 77.72 107.056 79C104.896 81.64 100.736 82.96 94.5755 82.96C92.7355 82.96 89.9555 82.76 86.2355 82.36V74.92C90.0755 75.16 93.1155 75.28 95.3555 75.28C97.5955 75.28 99.0355 74.92 99.6755 74.2C100.356 73.44 100.696 71.78 100.696 69.22V66.34C100.696 65.34 100.636 64.76 100.516 64.6C100.396 64.44 100.236 64.24 100.036 64C99.8755 63.72 99.6755 63.56 99.4355 63.52C99.1955 63.48 98.8755 63.4 98.4755 63.28C97.9155 63.16 96.8755 63.1 95.3555 63.1H91.0355V55.42C93.7155 55.42 95.5355 55.3 96.4955 55.06C97.4955 54.82 98.1355 54.48 98.4155 54.04C99.1355 53.08 99.4955 51.56 99.4955 49.48C99.4955 46 98.7155 44.26 97.1555 44.26ZM122.318 37.48C123.718 37.08 125.478 36.88 127.598 36.88C131.158 36.88 133.858 37.48 135.698 38.68C137.538 39.88 138.878 42.1 139.718 45.34C140.558 48.58 140.978 53.38 140.978 59.74C140.978 68.5 140.018 74.56 138.098 77.92C136.218 81.28 132.718 82.96 127.598 82.96C122.518 82.96 119.018 81.28 117.098 77.92C115.178 74.56 114.218 68.84 114.218 60.76C114.218 52.68 114.778 46.98 115.898 43.66C117.018 40.34 119.158 38.28 122.318 37.48ZM123.158 50.44C122.998 51.68 122.898 52.94 122.858 54.22C122.818 55.46 122.798 57.64 122.798 60.76C122.798 63.88 122.878 66.48 123.038 68.56C123.238 70.64 123.478 72.02 123.758 72.7C124.078 73.38 124.498 73.72 125.018 73.72C126.338 73.72 127.338 73.7 128.018 73.66C128.738 73.58 129.418 73.36 130.058 73C130.738 72.6 131.198 72.16 131.438 71.68C131.718 71.2 131.958 70.36 132.158 69.16C132.438 67.48 132.578 64.52 132.578 60.28C132.578 56.04 132.478 52.88 132.278 50.8C132.118 48.72 131.878 47.34 131.558 46.66C131.238 45.94 130.798 45.58 130.238 45.58C128.958 45.58 127.938 45.62 127.178 45.7C126.458 45.78 125.778 46.04 125.138 46.48C124.538 46.88 124.098 47.32 123.818 47.8C123.578 48.28 123.358 49.16 123.158 50.44ZM153.91 81.04L167.59 38.8H173.71L174.67 39.76L161.41 82H154.87L153.91 81.04ZM146.29 56.86C145.17 55.5 144.61 53.12 144.61 49.72C144.61 46.32 145.17 43.96 146.29 42.64C147.45 41.28 149.29 40.6 151.81 40.6C154.33 40.6 156.15 41.28 157.27 42.64C158.43 43.96 159.01 46.32 159.01 49.72C159.01 53.12 158.43 55.5 157.27 56.86C156.15 58.18 154.33 58.84 151.81 58.84C149.29 58.84 147.45 58.18 146.29 56.86ZM149.59 49.72C149.59 52.48 150.33 53.86 151.81 53.86C152.41 53.86 152.93 53.42 153.37 52.54C153.81 51.62 154.03 50.46 154.03 49.06C154.03 47.66 153.89 46.74 153.61 46.3C153.37 45.82 152.85 45.58 152.05 45.58C151.25 45.58 150.63 45.98 150.19 46.78C149.79 47.58 149.59 48.56 149.59 49.72ZM170.77 79.06C169.65 77.7 169.09 75.32 169.09 71.92C169.09 68.52 169.65 66.16 170.77 64.84C171.93 63.48 173.77 62.8 176.29 62.8C178.81 62.8 180.63 63.48 181.75 64.84C182.91 66.16 183.49 68.52 183.49 71.92C183.49 75.32 182.91 77.7 181.75 79.06C180.63 80.38 178.81 81.04 176.29 81.04C173.77 81.04 171.93 80.38 170.77 79.06ZM174.07 71.92C174.07 74.68 174.81 76.06 176.29 76.06C176.89 76.06 177.41 75.62 177.85 74.74C178.29 73.82 178.51 72.66 178.51 71.26C178.51 69.86 178.37 68.94 178.09 68.5C177.85 68.02 177.33 67.78 176.53 67.78C175.73 67.78 175.11 68.18 174.67 68.98C174.27 69.78 174.07 70.76 174.07 71.92ZM80.7774 99.96C82.9574 99.96 84.6074 100.27 85.7274 100.89C86.8474 101.51 87.6574 102.64 88.1574 104.28C88.6574 105.9 88.9074 108.31 88.9074 111.51C88.9074 115.95 88.3274 119.06 87.1674 120.84C86.0074 122.6 83.8774 123.48 80.7774 123.48C80.0174 123.48 77.8274 123.32 74.2074 123V100.47C77.2474 100.13 79.4374 99.96 80.7774 99.96ZM82.3674 103.53C80.6274 103.53 79.5374 103.57 79.0974 103.65C78.6574 103.71 78.4374 103.9 78.4374 104.22V119.28C78.4374 119.5 78.5674 119.63 78.8274 119.67C79.1074 119.71 79.6574 119.73 80.4774 119.73C81.3174 119.73 81.9074 119.69 82.2474 119.61C82.5874 119.51 82.8974 119.35 83.1774 119.13C83.4774 118.89 83.6774 118.44 83.7774 117.78C83.9774 116.5 84.0774 114.52 84.0774 111.84C84.0774 106.3 83.5074 103.53 82.3674 103.53ZM91.7661 119.37H92.8461V104.04H91.9461C91.5461 104.02 91.2761 103.89 91.1361 103.65C90.9961 103.37 90.9261 102.86 90.9261 102.12C90.9261 101 91.2561 100.44 91.9161 100.44H97.2261C98.1061 100.44 98.5461 100.75 98.5461 101.37C98.5461 103.15 98.1961 104.04 97.4961 104.04H96.7461L97.0461 110.04L97.0761 119.37H97.9761C98.6761 119.39 99.0261 119.71 99.0261 120.33C98.9861 122.11 98.4961 123 97.5561 123H91.8861C91.5261 122.98 91.2761 122.85 91.1361 122.61C90.9961 122.33 90.9261 121.81 90.9261 121.05C90.9261 119.93 91.2061 119.37 91.7661 119.37ZM101.192 120.81C100.772 120.29 100.562 119.9 100.562 119.64C100.562 119.36 100.792 118.99 101.252 118.53C101.732 118.05 102.042 117.79 102.182 117.75C102.342 117.71 102.492 117.69 102.632 117.69C102.772 117.69 103.002 117.78 103.322 117.96C104.802 119.12 106.102 119.7 107.222 119.7C108.342 119.7 109.072 119.44 109.412 118.92C109.752 118.4 109.922 117.72 109.922 116.88C109.922 116.04 109.622 115.36 109.022 114.84C108.422 114.32 107.432 113.69 106.052 112.95C104.692 112.21 103.502 111.25 102.482 110.07C101.462 108.89 100.952 107.67 100.952 106.41C100.952 104.17 101.532 102.54 102.692 101.52C103.872 100.48 105.592 99.96 107.852 99.96C109.232 99.96 110.582 100.29 111.902 100.95C112.602 101.23 112.932 101.52 112.892 101.82C112.872 101.94 112.852 102.12 112.832 102.36C112.452 103.44 112.162 104.06 111.962 104.22C111.902 104.26 111.762 104.28 111.542 104.28C111.342 104.28 110.792 104.12 109.892 103.8C108.992 103.46 108.222 103.29 107.582 103.29C106.962 103.29 106.442 103.51 106.022 103.95C105.602 104.39 105.392 105.01 105.392 105.81C105.392 106.61 105.752 107.34 106.472 108C107.192 108.64 108.302 109.31 109.802 110.01C111.382 110.83 112.562 111.68 113.342 112.56C114.142 113.44 114.542 114.62 114.542 116.1C114.542 121.02 112.462 123.48 108.302 123.48C105.202 123.48 102.832 122.59 101.192 120.81ZM128.506 119.46C129.006 119.46 129.256 119.78 129.256 120.42C129.256 121.06 129.246 121.54 129.226 121.86C129.146 122.58 128.826 122.99 128.266 123.09C126.486 123.35 125.166 123.48 124.306 123.48C121.326 123.48 119.276 122.64 118.156 120.96C117.036 119.28 116.476 116.25 116.476 111.87C116.476 108.67 116.716 106.23 117.196 104.55C117.696 102.85 118.486 101.66 119.566 100.98C120.666 100.3 122.296 99.96 124.456 99.96C126.636 99.96 128.226 100.3 129.226 100.98C129.426 101.12 129.526 101.29 129.526 101.49C129.526 101.69 129.426 102.07 129.226 102.63C129.046 103.17 128.866 103.56 128.686 103.8C128.526 104.02 128.356 104.13 128.176 104.13C127.996 104.13 127.856 104.12 127.756 104.1C126.256 103.8 124.956 103.65 123.856 103.65C122.776 103.65 122.066 104.25 121.726 105.45C121.406 106.65 121.246 108.6 121.246 111.3C121.246 113.98 121.316 115.85 121.456 116.91C121.596 117.97 121.856 118.71 122.236 119.13C122.616 119.55 123.216 119.76 124.036 119.76C124.876 119.76 125.816 119.71 126.856 119.61C127.916 119.51 128.466 119.46 128.506 119.46ZM131.477 111.87C131.477 108.69 131.727 106.25 132.227 104.55C132.727 102.85 133.517 101.66 134.597 100.98C135.697 100.3 137.277 99.96 139.337 99.96C141.397 99.96 142.967 100.3 144.047 100.98C145.147 101.66 145.937 102.85 146.417 104.55C146.917 106.23 147.167 108.67 147.167 111.87C147.167 116.25 146.607 119.28 145.487 120.96C144.367 122.64 142.317 123.48 139.337 123.48C136.357 123.48 134.297 122.64 133.157 120.96C132.037 119.28 131.477 116.25 131.477 111.87ZM136.487 106.29C136.367 107.03 136.297 107.79 136.277 108.57C136.257 109.33 136.247 110.63 136.247 112.47C136.247 114.31 136.307 115.85 136.427 117.09C136.547 118.33 136.707 119.15 136.907 119.55C137.107 119.93 137.377 120.12 137.717 120.12C139.477 120.12 140.627 119.94 141.167 119.58C141.367 119.44 141.557 119.21 141.737 118.89C141.937 118.57 142.077 118.24 142.157 117.9C142.237 117.56 142.307 117.06 142.367 116.4C142.447 115.54 142.487 114 142.487 111.78C142.487 109.54 142.427 107.78 142.307 106.5C142.207 105.2 142.047 104.32 141.827 103.86C141.627 103.38 141.357 103.14 141.017 103.14C140.217 103.14 139.567 103.18 139.067 103.26C138.587 103.32 138.157 103.49 137.777 103.77C137.397 104.03 137.117 104.33 136.937 104.67C136.757 104.99 136.607 105.53 136.487 106.29ZM159.278 101.34C159.278 100.78 159.398 100.41 159.638 100.23C159.878 100.05 160.378 99.96 161.138 99.96C161.898 99.96 162.418 100.08 162.698 100.32C162.998 100.56 163.158 101.14 163.178 102.06L163.538 110.13C163.538 110.43 163.538 110.73 163.538 111.03C163.538 114.13 163.328 116.59 162.908 118.41C162.508 120.23 161.808 121.53 160.808 122.31C159.828 123.09 158.418 123.48 156.578 123.48C153.898 123.48 152.048 122.64 151.028 120.96C150.008 119.28 149.498 116.26 149.498 111.9V102C149.498 101.14 149.618 100.59 149.858 100.35C150.118 100.09 150.638 99.96 151.418 99.96C152.198 99.96 152.728 100.1 153.008 100.38C153.288 100.64 153.448 101.28 153.488 102.3L153.908 110.07C153.908 115.13 154.108 118.14 154.508 119.1C154.668 119.52 154.898 119.73 155.198 119.73C155.898 119.73 156.438 119.72 156.818 119.7C157.198 119.66 157.568 119.54 157.928 119.34C158.288 119.12 158.538 118.87 158.678 118.59C158.818 118.31 158.948 117.84 159.068 117.18C159.208 116.26 159.278 114.5 159.278 111.9V101.34ZM166.112 122.28V101.07C166.112 100.33 166.832 99.96 168.272 99.96C168.572 99.96 168.802 99.97 168.962 99.99C169.142 100.01 169.362 100.11 169.622 100.29C169.882 100.45 170.112 100.69 170.312 101.01L175.682 113.61L175.502 101.04C175.502 100.32 176.222 99.96 177.662 99.96C178.262 99.96 178.672 100.03 178.892 100.17C179.112 100.31 179.232 100.6 179.252 101.04L179.732 110.07V122.37C179.732 122.71 179.722 122.94 179.702 123.06C179.622 123.34 179.232 123.48 178.532 123.48C177.232 123.48 176.452 123.11 176.192 122.37L170.282 109.92L170.312 122.34C170.312 122.7 170.302 122.94 170.282 123.06C170.202 123.34 169.812 123.48 169.112 123.48C167.112 123.48 166.112 123.08 166.112 122.28ZM186.211 122.37V104.04H182.461C181.981 104.02 181.671 103.89 181.531 103.65C181.351 103.37 181.261 102.87 181.261 102.15C181.261 101.01 181.601 100.44 182.281 100.44H193.201C194.361 100.44 194.941 100.75 194.941 101.37C194.941 103.15 194.461 104.04 193.501 104.04L190.141 104.01L190.411 110.1L190.441 122.31C190.441 122.69 190.431 122.94 190.411 123.06C190.331 123.34 189.941 123.48 189.241 123.48C187.221 123.48 186.211 123.11 186.211 122.37Z" fill="#F4F4F4"/>
</g>
<defs>
<filter id="filter0_d_11_57" x="52" y="0" width="168" height="168" filterUnits="userSpaceOnUse" color-interpolation-filters="sRGB">
<feFlood flood-opacity="0" result="BackgroundImageFix"/>
<feColorMatrix in="SourceAlpha" type="matrix" values="0 0 0 0 0 0 0 0 0 0 0 0 0 0 0 0 0 0 127 0" result="hardAlpha"/>
<feOffset dx="3" dy="3"/>
<feGaussianBlur stdDeviation="2"/>
<feComposite in2="hardAlpha" operator="out"/>
<feColorMatrix type="matrix" values="0 0 0 0 0 0 0 0 0 0 0 0 0 0 0 0 0 0 0.25 0"/>
<feBlend mode="normal" in2="BackgroundImageFix" result="effect1_dropShadow_11_57"/>
<feBlend mode="normal" in="SourceGraphic" in2="effect1_dropShadow_11_57" result="shape"/>
</filter>
<filter id="filter1_d_11_57" x="74.2074" y="36.88" width="122.733" height="88.6" filterUnits="userSpaceOnUse" color-interpolation-filters="sRGB">
<feFlood flood-opacity="0" result="BackgroundImageFix"/>
<feColorMatrix in="SourceAlpha" type="matrix" values="0 0 0 0 0 0 0 0 0 0 0 0 0 0 0 0 0 0 127 0" result="hardAlpha"/>
<feOffset dx="1" dy="1"/>
<feGaussianBlur stdDeviation="0.5"/>
<feComposite in2="hardAlpha" operator="out"/>
<feColorMatrix type="matrix" values="0 0 0 0 0 0 0 0 0 0 0 0 0 0 0 0 0 0 0.25 0"/>
<feBlend mode="normal" in2="BackgroundImageFix" result="effect1_dropShadow_11_57"/>
<feBlend mode="normal" in="SourceGraphic" in2="effect1_dropShadow_11_57" result="shape"/>
</filter>
</defs>
</svg>
